<?xml version="1.0" standalone="no"?>
<!DOCTYPE svg PUBLIC "-//W3C//DTD SVG 20010904//EN"
 "http://www.w3.org/TR/2001/REC-SVG-20010904/DTD/svg10.dtd">
<svg version="1.0" xmlns="http://www.w3.org/2000/svg"
 width="276.000000pt" height="250.000000pt" viewBox="0 0 276.000000 250.000000"
 preserveAspectRatio="xMidYMid meet">

<g transform="translate(0.000000,250.000000) scale(0.100000,-0.100000)"
fill="#000000" stroke="none">
<path d="M1020 2460 c-124 -30 -254 -97 -355 -182 -178 -149 -286 -286 -393
-498 -112 -221 -168 -407 -208 -695 -19 -139 -14 -315 11 -408 71 -258 290
-453 637 -566 419 -136 806 -132 1211 13 337 120 650 400 755 673 44 115 56
184 55 313 -1 95 -6 136 -32 232 -39 149 -68 217 -147 349 -78 130 -132 201
-232 303 -253 260 -559 419 -907 472 -128 19 -303 17 -395 -6z"/>
</g>
</svg>
